# xmcd
#
# Track frame offsets:
#	150
#	29631
#	57635
#	84526
#	118176
#	156955
#	186484
#	223983
#	265130
#
# Disc length: 3780 seconds
#
# Revision: 0
# Processed by: cddbd v1.5.2PL0 Copyright (c) Steve Scherf et al.
# Submitted via: dBpowerAMP V4.0
#
DISCID=8f0ec209
DTITLE=Stephen Carter - You Long To Be Gracious
DYEAR=1900
DGENRE=
TTITLE0=Bring Your Kingdom
TTITLE1=Any Other Lover
TTITLE2=You Long To Be Gracious
TTITLE3=Most Excellent Of Men
TTITLE4=Come Quickly
TTITLE5=Even Though I Walk
TTITLE6=Daily Bread
TTITLE7=All Things Well (Live)
TTITLE8=To The End
EXTD=
EXTT0=
EXTT1=
EXTT2=
EXTT3=
EXTT4=
EXTT5=
EXTT6=
EXTT7=
EXTT8=
PLAYORDER=
